<?xml version="1.0" encoding="UTF-8"?>
<svg id="Layer_1" xmlns="http://www.w3.org/2000/svg" version="1.1" viewBox="0 0 1280 237.1">
  <!-- Generator: Adobe Illustrator 29.0.1, SVG Export Plug-In . SVG Version: 2.1.0 Build 192)  -->
  <defs>
    <style>
      .st0 {
        fill: #4bacc6;
      }

      .st1 {
        fill: #fff;
      }

      .st2 {
        fill: #604a7b;
      }

      .st3 {
        isolation: isolate;
      }

      .st4 {
        fill: #f79646;
      }
    </style>
  </defs>
  <rect class="st4" x="202" y="88.7" width="122" height="20"/>
  <g class="st3">
    <path class="st1" d="M255.5,102.3l.8-.8c.4.4.8.7,1.2.9.4.2.9.3,1.5.3s1-.1,1.3-.4c.3-.2.5-.6.5-1s-.1-.7-.4-1c-.3-.2-.7-.5-1.3-.6l-1-.3c-.8-.2-1.3-.5-1.7-.9-.4-.4-.5-.9-.5-1.5s.1-.8.4-1.2c.2-.4.6-.7,1-.9.4-.2,1-.3,1.6-.3s1.2.1,1.8.4c.5.2,1,.6,1.3,1l-.8.7c-.2-.3-.6-.5-1-.7s-.8-.3-1.2-.3-.7,0-1,.2c-.3.1-.5.3-.6.5s-.2.4-.2.7.1.6.3.8.6.4,1,.5l.9.2c.9.3,1.6.6,2,1s.6,1,.6,1.7-.1.9-.4,1.3c-.2.4-.6.7-1,.9-.4.2-1,.3-1.6.3-1.5,0-2.7-.5-3.5-1.5h0Z"/>
    <path class="st1" d="M267.7,103.9h-1.3l-3.7-9.2h1.4l2.9,7.8h0l2.9-7.8h1.4l-3.7,9.2h.1Z"/>
  </g>
  <rect class="st0" x="123" y="129.7" width="201" height="16"/>
  <rect class="st2" x="202" y="111.7" width="195" height="16"/>
  <g class="st3">
    <path class="st2" d="M190.4,123.7h-5.7v-9h1.3v7.8h4.5v1.1h-.1Z"/>
    <path class="st2" d="M191.6,122.3l.8-.8c.4.4.8.7,1.2.9.4.2.9.3,1.5.3s1-.1,1.3-.4c.3-.2.5-.6.5-1s-.1-.7-.4-1c-.3-.2-.7-.5-1.3-.6l-1-.3c-.8-.2-1.3-.5-1.7-.9s-.5-.9-.5-1.5.1-.8.4-1.2c.2-.4.6-.7,1-.9.4-.2,1-.3,1.6-.3s1.2.1,1.8.4c.5.2,1,.6,1.3,1l-.8.7c-.2-.3-.6-.5-1-.7s-.8-.3-1.2-.3-.7,0-1,.2c-.3.1-.5.3-.6.5s-.2.4-.2.7.1.6.3.8.6.4,1,.5l.9.2c.9.3,1.6.6,2,1s.6,1,.6,1.7-.1.9-.4,1.3c-.2.4-.6.7-1,.9-.4.2-1,.3-1.6.3-1.5,0-2.7-.5-3.5-1.5h0Z"/>
  </g>
  <g class="st3">
    <path class="st0" d="M340.5,141.7h-1.5l-2.7-3.6h-1.7v3.6h-1.2v-9h3.2c.6,0,1.2.1,1.7.3.5.2.9.5,1.1.9.3.4.4.9.4,1.5s-.2,1.2-.6,1.7-1,.8-1.7.9l3,3.7h0ZM334.7,133.8v3.3h1.9c.6,0,1.1-.1,1.5-.4s.6-.7.6-1.2-.2-1-.5-1.2c-.3-.3-.8-.4-1.4-.4h-2.1Z"/>
    <path class="st0" d="M348,141.7h-5.6v-9h5.6v1.1h-4.3v2.7h3.4v1.1h-3.4v3h4.4v1.1h-.1Z"/>
  </g>
  <g class="st3">
    <path d="M232.3,66.7v1.3h-2.9v14.1h2.9v1.3h-4.4v-16.6h4.4Z"/>
  </g>
  <g class="st3">
    <path class="st2" d="M242,80.7h-8v-12.6h1.8v11h6.3v1.6h-.1Z"/>
    <path class="st2" d="M243.5,78.8l1.1-1.1c.5.6,1.1,1,1.7,1.3.6.3,1.3.4,2.1.4s1.4-.2,1.9-.5c.4-.3.7-.8.7-1.4s-.2-1-.5-1.3c-.4-.3-1-.6-1.9-.9l-1.4-.4c-1.1-.3-1.8-.7-2.3-1.3-.5-.6-.8-1.3-.8-2.1s.2-1.2.5-1.7.8-.9,1.4-1.3c.6-.3,1.4-.5,2.2-.5s1.7.2,2.5.5c.7.3,1.3.8,1.8,1.4l-1.1,1c-.3-.4-.8-.8-1.4-1-.6-.2-1.1-.4-1.7-.4s-1,0-1.3.3c-.4.2-.6.4-.8.7-.2.3-.3.6-.3,1s.1.8.4,1.1.8.5,1.5.7l1.2.3c1.3.4,2.3.9,2.9,1.5.6.6.9,1.4.9,2.3s-.2,1.3-.5,1.8-.8.9-1.4,1.2c-.6.3-1.4.4-2.2.4-2.1,0-3.7-.7-4.9-2.1h-.3Z"/>
  </g>
  <g class="st3">
    <path d="M258,79.7c0,.6-.2,1.2-.5,2-.3.7-.7,1.3-1.2,1.8l-1.2-.2c.7-.8,1.1-1.6,1.3-2.5-.3,0-.5-.2-.6-.4s-.2-.4-.2-.7.1-.7.3-.9c.2-.2.5-.3.9-.3s.7.1.9.3.3.5.3.9h0Z"/>
  </g>
  <g class="st3">
    <path class="st0" d="M276.7,80.7h-2.1l-3.8-5h-2.4v5h-1.7v-12.6h4.5c.9,0,1.7.1,2.4.4.7.3,1.2.7,1.6,1.3.4.6.6,1.2.6,2s-.3,1.7-.9,2.3c-.6.6-1.4,1.1-2.4,1.3l4.1,5.1v.2ZM268.5,69.7v4.6h2.6c.9,0,1.6-.2,2.1-.6s.8-1,.8-1.7-.2-1.3-.7-1.7c-.5-.4-1.1-.5-2-.5h-2.8Z"/>
    <path class="st0" d="M287.1,80.7h-7.9v-12.6h7.8v1.5h-6v3.8h4.7v1.5h-4.7v4.1h6.1v1.7Z"/>
  </g>
  <g class="st3">
    <path d="M290.6,83.3v-1.3h2.9v-14.1h-2.9v-1.3h4.4v16.6h-4.4Z"/>
  </g>
  <g class="st3">
    <path d="M170.9,38c-.9-.5-1.6-1.3-2.1-2.3s-.7-2.1-.7-3.3.3-2.4.8-3.4,1.2-1.7,2.1-2.3,1.9-.8,3-.8,1.9.2,2.7.5c.8.4,1.5.9,2.1,1.6l-1.2,1c-.5-.6-1-1-1.5-1.2s-1.2-.4-2-.4-1.5.2-2.2.6c-.6.4-1.2.9-1.5,1.7-.3.8-.6,1.6-.6,2.7s.2,1.9.5,2.7.9,1.3,1.5,1.7c.7.4,1.4.6,2.3.6s1.4-.1,2-.4,1.1-.6,1.5-1.1l1.2,1.1c-.6.6-1.4,1.1-2.1,1.4s-1.6.5-2.6.5-2.3-.3-3.2-.8h0Z"/>
    <path d="M182.9,38.2c-.7-.4-1.3-1-1.7-1.7s-.6-1.6-.6-2.6.2-1.8.6-2.6c.4-.7,1-1.3,1.7-1.7.7-.4,1.5-.6,2.4-.6s1.7.2,2.4.6,1.3,1,1.7,1.7.6,1.6.6,2.6-.2,1.8-.6,2.6-1,1.3-1.7,1.7-1.5.6-2.4.6-1.7-.2-2.4-.6ZM186.9,37c.5-.3.8-.7,1.1-1.2s.4-1.1.4-1.9-.1-1.4-.4-1.9c-.3-.5-.6-.9-1.1-1.2-.5-.3-1-.4-1.6-.4s-1.1.1-1.6.4-.8.7-1.1,1.2-.4,1.2-.4,1.9.1,1.3.4,1.9c.3.5.7.9,1.1,1.2.5.3,1,.4,1.6.4s1.1-.1,1.6-.4Z"/>
    <path d="M192.3,38.7v-9.5h1.5v1.6h0c.3-.6.8-1,1.3-1.3s1.1-.5,1.8-.5,1.3.1,1.9.4c.5.3,1,.7,1.3,1.3s.5,1.2.5,2v6h-1.7v-5.6c0-.9-.2-1.5-.6-2-.4-.4-1-.7-1.7-.7s-.8.1-1.2.3c-.4.2-.7.6-1,1.1-.2.5-.4,1.1-.4,1.7v5.1h-1.7Z"/>
    <path d="M208.4,38.4c-.2.1-.5.2-.9.3s-.7.1-1,.1c-.9,0-1.6-.2-2-.7s-.6-1.2-.6-2.2v-5.4h-1.5v-1.3h1.5v-2.4h1.7v2.4h2.7v1.3h-2.7v5.4c0,.6,0,1,.3,1.2.2.2.5.3.9.3s.9,0,1.4-.3l.4,1.3h-.2Z"/>
    <path d="M211.8,38.2c-.7-.4-1.2-1-1.6-1.7s-.6-1.6-.6-2.6.2-1.8.6-2.6c.4-.7.9-1.3,1.6-1.7.7-.4,1.4-.6,2.2-.6s1.4.2,2,.5,1.1.7,1.4,1.2h0v-1.5h1.7v9.5h-1.5v-1.7h-.1c-.3.6-.8,1-1.4,1.3-.6.3-1.3.5-2,.5s-1.6-.2-2.3-.6h0ZM215.9,37c.5-.3.9-.7,1.1-1.2.3-.5.4-1.2.4-1.9s-.1-1.3-.4-1.9c-.3-.5-.7-.9-1.1-1.2-.5-.3-1-.4-1.6-.4s-1.1.1-1.5.4-.8.7-1,1.2-.4,1.2-.4,1.9.1,1.4.4,1.9c.2.5.6.9,1,1.2.4.3.9.4,1.5.4s1.2-.1,1.7-.4h0Z"/>
    <path d="M222.3,26.9c-.2-.2-.3-.5-.3-.9s.1-.7.3-.9.5-.3.9-.3.7.1.9.3.3.5.3.9-.1.7-.3.9-.5.3-.9.3-.7-.1-.9-.3ZM224,38.7h-1.7v-9.5h1.7v9.5Z"/>
    <path d="M227.2,38.7v-9.5h1.5v1.6h0c.3-.6.8-1,1.3-1.3s1.1-.5,1.8-.5,1.3.1,1.9.4c.5.3,1,.7,1.3,1.3s.5,1.2.5,2v6h-1.7v-5.6c0-.9-.2-1.5-.6-2-.4-.4-1-.7-1.7-.7s-.8.1-1.2.3c-.4.2-.7.6-1,1.1-.2.5-.4,1.1-.4,1.7v5.1h-1.7Z"/>
    <path d="M239.5,38.5c-.7-.2-1.2-.6-1.7-1.1l.9-1.2c.5.4.9.7,1.4.9.5.2,1,.3,1.6.3,1.2,0,1.8-.4,1.8-1.3s-.1-.6-.3-.8-.5-.4-1-.5l-1.7-.5c-.8-.2-1.4-.6-1.8-1-.4-.4-.6-1-.6-1.7s.1-.9.4-1.3.6-.7,1.1-1c.5-.2,1.1-.4,1.8-.4s1.3.1,1.9.4c.6.2,1.1.6,1.6,1.1l-.9,1.1c-.7-.7-1.6-1-2.5-1s-1,.1-1.3.4c-.3.2-.4.5-.4.9s0,.6.3.7c.2.2.5.3.9.5l1.7.5c.9.3,1.5.6,1.9,1s.6,1,.6,1.7-.3,1.5-.9,2c-.6.5-1.4.7-2.6.7s-1.5-.1-2.2-.4h0Z"/>
    <path d="M262.6,38.7h-8v-12.6h1.8v11h6.3v1.6h0Z"/>
    <path d="M264.2,36.8l1.1-1.1c.5.6,1.1,1,1.7,1.3s1.3.4,2.1.4,1.4-.2,1.9-.5c.4-.3.7-.8.7-1.4s-.2-1-.5-1.3c-.4-.3-1-.6-1.9-.9l-1.4-.4c-1.1-.3-1.8-.7-2.3-1.3-.5-.6-.8-1.3-.8-2.1s.2-1.2.5-1.7.8-.9,1.4-1.3c.6-.3,1.4-.5,2.2-.5s1.7.2,2.5.5c.7.3,1.3.8,1.8,1.4l-1.1,1c-.3-.4-.8-.8-1.4-1s-1.1-.4-1.7-.4-1,0-1.3.3c-.4.2-.6.4-.8.7-.2.3-.3.6-.3,1s.1.8.4,1.1.8.5,1.5.7l1.2.3c1.3.4,2.3.9,2.9,1.5s.9,1.4.9,2.3-.2,1.3-.5,1.8-.8.9-1.4,1.2c-.6.3-1.4.4-2.2.4-2.1,0-3.7-.7-4.9-2.1h-.3Z"/>
    <path d="M283.7,38.2c-.7-.4-1.2-1-1.6-1.7s-.6-1.6-.6-2.6.2-1.8.6-2.6c.4-.7.9-1.3,1.6-1.7.7-.4,1.4-.6,2.2-.6s1.4.2,2,.5,1.1.7,1.4,1.2h0v-1.5h1.7v9.5h-1.5v-1.7h-.1c-.3.6-.8,1-1.4,1.3s-1.3.5-2,.5-1.6-.2-2.3-.6h0ZM287.8,37c.5-.3.9-.7,1.1-1.2.3-.5.4-1.2.4-1.9s-.1-1.3-.4-1.9c-.3-.5-.7-.9-1.1-1.2-.5-.3-1-.4-1.6-.4s-1.1.1-1.5.4-.8.7-1,1.2-.4,1.2-.4,1.9.1,1.4.4,1.9c.2.5.6.9,1,1.2.4.3.9.4,1.5.4s1.2-.1,1.7-.4h-.1Z"/>
    <path d="M293.8,38.7v-9.5h1.5v1.6h0c.3-.6.8-1,1.3-1.3s1.1-.5,1.8-.5,1.3.1,1.9.4c.5.3,1,.7,1.3,1.3s.5,1.2.5,2v6h-1.7v-5.6c0-.9-.2-1.5-.6-2-.4-.4-1-.7-1.7-.7s-.8.1-1.2.3c-.4.2-.7.6-1,1.1-.2.5-.4,1.1-.4,1.7v5.1h-1.7,0Z"/>
    <path d="M306.4,38.3c-.7-.4-1.2-.9-1.6-1.7-.4-.7-.6-1.6-.6-2.6s.2-1.9.6-2.7c.4-.8,1-1.3,1.6-1.7.7-.4,1.5-.6,2.3-.6s1.3.2,1.9.5,1,.7,1.4,1.2h0v-5.5h1.7v13.5h-1.5v-1.9h-.2c-.2.4-.4.7-.8,1.1s-.7.6-1.2.7c-.5.2-1,.3-1.5.3-.8,0-1.6-.2-2.3-.6h.2ZM310.5,37c.5-.3.9-.7,1.2-1.2.3-.5.4-1.2.4-2s-.1-1.3-.4-1.8-.7-.9-1.2-1.2c-.5-.3-1-.4-1.6-.4s-1.1.1-1.6.4c-.4.3-.8.7-1,1.2s-.4,1.2-.4,2,.1,1.3.4,1.8c.2.5.6.9,1,1.2.4.3,1,.4,1.5.4s1.1-.1,1.6-.4h.1Z"/>
    <path d="M333.8,38.7h-2.1l-3.8-5h-2.4v5h-1.7v-12.6h4.5c.9,0,1.7.1,2.4.4.7.3,1.2.7,1.6,1.3s.6,1.2.6,2-.3,1.7-.9,2.3c-.6.6-1.4,1.1-2.4,1.3l4.1,5.1v.2ZM325.6,27.7v4.6h2.6c.9,0,1.6-.2,2.1-.6s.8-1,.8-1.7-.2-1.3-.7-1.7-1.1-.5-2-.5h-2.8Z"/>
    <path d="M344.2,38.7h-7.9v-12.6h7.8v1.5h-6v3.8h4.7v1.5h-4.7v4.1h6.1v1.7Z"/>
  </g>
  <g class="st3">
    <path d="M553.9,36.8l1.1-1.1c.5.6,1.1,1,1.7,1.3.6.3,1.3.4,2.1.4s1.4-.2,1.9-.5c.4-.3.7-.8.7-1.4s-.2-1-.5-1.3c-.4-.3-1-.6-1.9-.9l-1.4-.4c-1.1-.3-1.8-.7-2.3-1.3-.5-.6-.8-1.3-.8-2.1s.2-1.2.5-1.7.8-.9,1.4-1.3c.6-.3,1.4-.5,2.2-.5s1.7.2,2.5.5c.7.3,1.3.8,1.8,1.4l-1.1,1c-.3-.4-.8-.8-1.4-1-.6-.2-1.1-.4-1.7-.4s-1,0-1.3.3c-.4.2-.6.4-.8.7s-.3.6-.3,1,0,.8.4,1.1.8.5,1.5.7l1.2.3c1.3.4,2.3.9,2.9,1.5.6.6.9,1.4.9,2.3s-.2,1.3-.5,1.8-.8.9-1.4,1.2-1.4.4-2.2.4c-2.1,0-3.7-.7-4.9-2.1h-.3Z"/>
    <path d="M566.8,38.2c-.7-.4-1.2-1-1.6-1.7s-.6-1.6-.6-2.6.2-1.8.6-2.6c.4-.7.9-1.3,1.6-1.7.7-.4,1.4-.6,2.2-.6s1.4.2,2,.5,1.1.7,1.4,1.2h0v-1.5h1.7v9.5h-1.5v-1.7h0c-.3.6-.8,1-1.4,1.3-.6.3-1.3.5-2,.5s-1.6-.2-2.3-.6h0ZM570.9,37c.5-.3.9-.7,1.1-1.2.3-.5.4-1.2.4-1.9s0-1.3-.4-1.9c-.3-.5-.7-.9-1.1-1.2-.5-.3-1-.4-1.6-.4s-1.1.1-1.5.4-.8.7-1,1.2-.4,1.2-.4,1.9,0,1.4.4,1.9c.2.5.6.9,1,1.2.4.3.9.4,1.5.4s1.2-.1,1.7-.4h-.1Z"/>
    <path d="M576.9,38.7v-9.5h1.5v1.6h0c.3-.6.8-1,1.3-1.3s1.1-.5,1.8-.5,1.4.2,1.9.5,1,.8,1.3,1.4h0c.3-.6.8-1,1.3-1.3s1.2-.5,1.8-.5,1.3.1,1.9.4c.5.3,1,.7,1.3,1.3s.5,1.2.5,2v6h-1.7v-5.8c0-.8-.2-1.4-.6-1.8s-.9-.6-1.6-.6-.9.1-1.3.3-.7.6-.9,1-.3,1-.3,1.6v5.3h-1.7v-5.8c0-.8-.2-1.4-.6-1.8-.4-.4-.9-.6-1.6-.6s-.9.1-1.3.3-.7.6-1,1c-.3.5-.4,1-.4,1.7v5.1h-1.7,0Z"/>
    <path d="M602.7,34.4h-7.2c0,1,.4,1.7,1,2.2s1.3.8,2.2.8,1,0,1.5-.3.9-.4,1.2-.7l1,1.1c-.5.4-1,.8-1.6,1s-1.3.4-2.1.4-1.7-.2-2.5-.6c-.7-.4-1.3-1-1.7-1.7s-.6-1.6-.6-2.6.2-1.8.6-2.6c.4-.7,1-1.3,1.7-1.7s1.5-.6,2.4-.6,1.6.2,2.3.6,1.2.9,1.5,1.6.5,1.5.5,2.4,0,.5,0,.8h-.2ZM596.6,31.1c-.5.5-.8,1.1-1,1.9h5.6c0-.8-.3-1.4-.8-1.9s-1.1-.7-1.9-.7-1.3.2-1.9.7h0Z"/>
    <path d="M613.3,38.2c-.7-.4-1.3-1-1.7-1.7s-.6-1.6-.6-2.6.2-1.8.6-2.6c.4-.7,1-1.3,1.7-1.7.7-.4,1.5-.6,2.4-.6s1.7.2,2.4.6,1.3,1,1.7,1.7.6,1.6.6,2.6-.2,1.8-.6,2.6-1,1.3-1.7,1.7-1.5.6-2.4.6-1.7-.2-2.4-.6ZM617.3,37c.5-.3.8-.7,1.1-1.2s.4-1.1.4-1.9,0-1.4-.4-1.9c-.3-.5-.6-.9-1.1-1.2-.5-.3-1-.4-1.6-.4s-1.1.1-1.6.4-.8.7-1.1,1.2-.4,1.2-.4,1.9,0,1.3.4,1.9c.3.5.7.9,1.1,1.2.5.3,1,.4,1.6.4s1.1-.1,1.6-.4Z"/>
    <path d="M622.8,38.7v-9.5h1.4l.2,1.7h0c.3-.6.6-1.1,1.1-1.4.5-.3,1.1-.5,1.9-.5s.6,0,.8.1l-.2,1.5h-1c-.4,0-.8.1-1.2.3-.4.2-.7.6-.9,1-.2.5-.4,1-.4,1.7v5.1h-1.7,0Z"/>
    <path d="M630.2,26.9c-.2-.2-.3-.5-.3-.9s0-.7.3-.9.5-.3.9-.3.7.1.9.3.3.5.3.9,0,.7-.3.9-.5.3-.9.3-.7-.1-.9-.3ZM631.9,38.7h-1.7v-9.5h1.7v9.5Z"/>
    <path d="M643.4,34.4h-7.2c0,1,.4,1.7,1,2.2s1.3.8,2.2.8,1,0,1.5-.3.9-.4,1.2-.7l1,1.1c-.5.4-1,.8-1.6,1s-1.3.4-2.1.4-1.7-.2-2.5-.6c-.7-.4-1.3-1-1.7-1.7s-.6-1.6-.6-2.6.2-1.8.6-2.6c.4-.7,1-1.3,1.7-1.7s1.5-.6,2.4-.6,1.6.2,2.3.6,1.2.9,1.5,1.6.5,1.5.5,2.4,0,.5,0,.8h-.2ZM637.3,31.1c-.5.5-.8,1.1-1,1.9h5.6c0-.8-.3-1.4-.8-1.9s-1.1-.7-1.9-.7-1.3.2-1.9.7h0Z"/>
    <path d="M645.7,38.7v-9.5h1.5v1.6h0c.3-.6.8-1,1.3-1.3s1.1-.5,1.8-.5,1.3.1,1.9.4c.5.3,1,.7,1.3,1.3s.5,1.2.5,2v6h-1.7v-5.6c0-.9-.2-1.5-.6-2-.4-.4-1-.7-1.7-.7s-.8.1-1.2.3c-.4.2-.7.6-1,1.1-.2.5-.4,1.1-.4,1.7v5.1h-1.7,0Z"/>
    <path d="M661.8,38.4c-.2.1-.5.2-.9.3-.4,0-.7.1-1,.1-.9,0-1.6-.2-2-.7s-.6-1.2-.6-2.2v-5.4h-1.5v-1.3h1.5v-2.4h1.7v2.4h2.7v1.3h-2.7v5.4c0,.6,0,1,.3,1.2.2.2.5.3.9.3s.9,0,1.4-.3l.4,1.3h-.2Z"/>
    <path d="M665.2,38.2c-.7-.4-1.2-1-1.6-1.7s-.6-1.6-.6-2.6.2-1.8.6-2.6c.4-.7.9-1.3,1.6-1.7.7-.4,1.4-.6,2.2-.6s1.4.2,2,.5,1.1.7,1.4,1.2h0v-1.5h1.7v9.5h-1.5v-1.7h0c-.3.6-.8,1-1.4,1.3-.6.3-1.3.5-2,.5s-1.6-.2-2.3-.6h0ZM669.3,37c.5-.3.9-.7,1.1-1.2.3-.5.4-1.2.4-1.9s0-1.3-.4-1.9c-.3-.5-.7-.9-1.1-1.2-.5-.3-1-.4-1.6-.4s-1.1.1-1.5.4-.8.7-1,1.2-.4,1.2-.4,1.9,0,1.4.4,1.9c.2.5.6.9,1,1.2.4.3.9.4,1.5.4s1.2-.1,1.7-.4h-.1Z"/>
    <path d="M680.6,38.4c-.2.1-.5.2-.9.3-.4,0-.7.1-1,.1-.9,0-1.6-.2-2-.7s-.6-1.2-.6-2.2v-5.4h-1.5v-1.3h1.5v-2.4h1.7v2.4h2.7v1.3h-2.7v5.4c0,.6,0,1,.3,1.2.2.2.5.3.9.3s.9,0,1.4-.3l.4,1.3h-.2Z"/>
    <path d="M683,26.9c-.2-.2-.3-.5-.3-.9s0-.7.3-.9.5-.3.9-.3.7.1.9.3.3.5.3.9,0,.7-.3.9-.5.3-.9.3-.7-.1-.9-.3ZM684.8,38.7h-1.7v-9.5h1.7v9.5Z"/>
    <path d="M689.7,38.2c-.7-.4-1.3-1-1.7-1.7s-.6-1.6-.6-2.6.2-1.8.6-2.6c.4-.7,1-1.3,1.7-1.7.7-.4,1.5-.6,2.4-.6s1.7.2,2.4.6,1.3,1,1.7,1.7.6,1.6.6,2.6-.2,1.8-.6,2.6-1,1.3-1.7,1.7-1.5.6-2.4.6-1.7-.2-2.4-.6ZM693.7,37c.5-.3.8-.7,1.1-1.2s.4-1.1.4-1.9,0-1.4-.4-1.9c-.3-.5-.6-.9-1.1-1.2-.5-.3-1-.4-1.6-.4s-1.1.1-1.6.4-.8.7-1.1,1.2-.4,1.2-.4,1.9,0,1.3.4,1.9c.3.5.7.9,1.1,1.2.5.3,1,.4,1.6.4s1.1-.1,1.6-.4Z"/>
    <path d="M699.2,38.7v-9.5h1.5v1.6h0c.3-.6.8-1,1.3-1.3s1.1-.5,1.8-.5,1.3.1,1.9.4c.5.3,1,.7,1.3,1.3s.5,1.2.5,2v6h-1.7v-5.6c0-.9-.2-1.5-.6-2-.4-.4-1-.7-1.7-.7s-.8.1-1.2.3c-.4.2-.7.6-1,1.1-.2.5-.4,1.1-.4,1.7v5.1h-1.7,0Z"/>
  </g>
  <rect class="st4" x="607" y="88.7" width="122" height="20"/>
  <g class="st3">
    <path class="st1" d="M659.8,102.3l.8-.8c.4.4.8.7,1.2.9.4.2.9.3,1.5.3s1-.1,1.3-.4c.3-.2.5-.6.5-1s0-.7-.4-1c-.3-.2-.7-.5-1.3-.6l-1-.3c-.8-.2-1.3-.5-1.7-.9s-.5-.9-.5-1.5,0-.8.4-1.2c.2-.4.6-.7,1-.9.4-.2,1-.3,1.6-.3s1.2.1,1.8.4c.5.2,1,.6,1.3,1l-.8.7c-.2-.3-.6-.5-1-.7s-.8-.3-1.2-.3-.7,0-1,.2c-.3.1-.5.3-.6.5s-.2.4-.2.7,0,.6.3.8.6.4,1,.5l.9.2c.9.3,1.6.6,2,1s.6,1,.6,1.7,0,.9-.4,1.3c-.2.4-.6.7-1,.9-.4.2-1,.3-1.6.3-1.5,0-2.7-.5-3.5-1.5h0Z"/>
    <path class="st1" d="M672,103.9h-1.3l-3.7-9.2h1.4l2.9,7.8h0l2.9-7.8h1.4l-3.7,9.2h0Z"/>
  </g>
  <rect class="st0" x="528" y="129.7" width="201" height="16"/>
  <g class="st3">
    <path class="st1" d="M623,141v-2.9h-2.9v-1.2h2.9v-2.9h1.2v2.9h2.9v1.2h-2.9v2.9h-1.2Z"/>
    <path class="st1" d="M628,142.9l3.1-11.1h1.1l-3.1,11.1h-1.1Z"/>
  </g>
  <g class="st3">
    <path class="st1" d="M632.6,139.5v-1.3h4.1v1.3h-4.1Z"/>
  </g>
  <rect class="st2" x="607" y="111.7" width="195" height="16"/>
  <g class="st3">
    <path class="st1" d="M698.9,123v-2.9h-2.9v-1.2h2.9v-2.9h1.2v2.9h2.9v1.2h-2.9v2.9h-1.2Z"/>
    <path class="st1" d="M703.9,124.9l3.1-11.1h1.1l-3.1,11.1h-1.1Z"/>
  </g>
  <g class="st3">
    <path class="st1" d="M708.5,121.5v-1.3h4.1v1.3h-4.1Z"/>
  </g>
  <g class="st3">
    <path class="st2" d="M594.7,123.7h-5.7v-9h1.3v7.8h4.5v1.1h0Z"/>
    <path class="st2" d="M595.9,122.3l.8-.8c.4.4.8.7,1.2.9.4.2.9.3,1.5.3s1-.1,1.3-.4c.3-.2.5-.6.5-1s0-.7-.4-1c-.3-.2-.7-.5-1.3-.6l-1-.3c-.8-.2-1.3-.5-1.7-.9s-.5-.9-.5-1.5,0-.8.4-1.2c.2-.4.6-.7,1-.9.4-.2,1-.3,1.6-.3s1.2.1,1.8.4c.5.2,1,.6,1.3,1l-.8.7c-.2-.3-.6-.5-1-.7s-.8-.3-1.2-.3-.7,0-1,.2c-.3.1-.5.3-.6.5s-.2.4-.2.7,0,.6.3.8.6.4,1,.5l.9.2c.9.3,1.6.6,2,1s.6,1,.6,1.7,0,.9-.4,1.3c-.2.4-.6.7-1,.9-.4.2-1,.3-1.6.3-1.5,0-2.7-.5-3.5-1.5h0Z"/>
  </g>
  <g class="st3">
    <path class="st0" d="M744.8,141.7h-1.5l-2.7-3.6h-1.7v3.6h-1.2v-9h3.2c.6,0,1.2.1,1.7.3.5.2.9.5,1.1.9.3.4.4.9.4,1.5s-.2,1.2-.6,1.7c-.4.5-1,.8-1.7.9l3,3.7ZM739,133.8v3.3h1.9c.6,0,1.1-.1,1.5-.4s.6-.7.6-1.2-.2-1-.5-1.2c-.3-.3-.8-.4-1.4-.4h-2.1Z"/>
    <path class="st0" d="M752.3,141.7h-5.6v-9h5.6v1.1h-4.3v2.7h3.4v1.1h-3.4v3h4.4v1.1h-.1Z"/>
  </g>
  <g class="st3">
    <path d="M907.8,38.7v-12.6h4.1c1.3,0,2.4.2,3.4.7s1.7,1.2,2.2,2.1.7,2.1.7,3.4-.3,2.5-.8,3.4-1.2,1.7-2.2,2.2c-.9.5-2.1.7-3.4.7h-4.1,0ZM911.9,37.2c1.4,0,2.5-.4,3.3-1.2.8-.8,1.1-2,1.1-3.6s-.4-2.7-1.1-3.5c-.8-.8-1.9-1.2-3.3-1.2h-2.4v9.5h2.4Z"/>
    <path d="M920.7,26.9c-.2-.2-.3-.5-.3-.9s0-.7.3-.9.5-.3.9-.3.7.1.9.3.3.5.3.9,0,.7-.3.9-.5.3-.9.3-.7-.1-.9-.3ZM922.5,38.7h-1.7v-9.5h1.7v9.5Z"/>
    <path d="M930.8,29.2v1.3h-2.6v8.2h-1.7v-8.2h-1.6v-1.3h1.6v-.9c0-1.1.2-1.8.7-2.4s1.2-.8,2-.8.5,0,.7,0c.3,0,.5.1.7.2l-.4,1.2c-.3-.1-.6-.2-.9-.2s-.7.1-.9.4c-.2.3-.3.7-.3,1.2v1.1h2.7v.2ZM937.5,29.2v1.3h-2.6v8.2h-1.7v-8.2h-1.6v-1.3h1.6v-.9c0-1.1.2-1.8.7-2.4s1.2-.8,2-.8.5,0,.7,0c.3,0,.5.1.7.2l-.4,1.2c-.3-.1-.6-.2-.9-.2s-.7.1-.9.4c-.2.3-.3.7-.3,1.2v1.1h2.7v.2Z"/>
    <path d="M947.3,34.4h-7.2c0,1,.4,1.7,1,2.2s1.3.8,2.2.8,1,0,1.5-.3.9-.4,1.2-.7l1,1.1c-.5.4-1,.8-1.6,1s-1.3.4-2.1.4-1.7-.2-2.5-.6c-.7-.4-1.3-1-1.7-1.7s-.6-1.6-.6-2.6.2-1.8.6-2.6c.4-.7,1-1.3,1.7-1.7s1.5-.6,2.4-.6,1.6.2,2.3.6,1.2.9,1.5,1.6.5,1.5.5,2.4,0,.5,0,.8h-.2ZM941.1,31.1c-.5.5-.8,1.1-1,1.9h5.6c0-.8-.3-1.4-.8-1.9s-1.1-.7-1.9-.7-1.3.2-1.9.7h0Z"/>
    <path d="M949.5,38.7v-9.5h1.4l.2,1.7h0c.3-.6.6-1.1,1.1-1.4.5-.3,1.1-.5,1.9-.5s.6,0,.8.1l-.2,1.5h-1c-.4,0-.8.1-1.2.3-.4.2-.7.6-.9,1-.2.5-.4,1-.4,1.7v5.1h-1.7,0Z"/>
    <path d="M964.7,34.4h-7.2c0,1,.4,1.7,1,2.2s1.3.8,2.2.8,1,0,1.5-.3.9-.4,1.2-.7l1,1.1c-.5.4-1,.8-1.6,1s-1.3.4-2.1.4-1.7-.2-2.5-.6c-.7-.4-1.3-1-1.7-1.7s-.6-1.6-.6-2.6.2-1.8.6-2.6c.4-.7,1-1.3,1.7-1.7s1.5-.6,2.4-.6,1.6.2,2.3.6,1.2.9,1.5,1.6.5,1.5.5,2.4,0,.5,0,.8h-.2ZM958.5,31.1c-.5.5-.8,1.1-1,1.9h5.6c0-.8-.3-1.4-.8-1.9s-1.1-.7-1.9-.7-1.3.2-1.9.7h0Z"/>
    <path d="M966.9,38.7v-9.5h1.5v1.6h0c.3-.6.8-1,1.3-1.3s1.1-.5,1.8-.5,1.3.1,1.9.4c.5.3,1,.7,1.3,1.3s.5,1.2.5,2v6h-1.7v-5.6c0-.9-.2-1.5-.6-2-.4-.4-1-.7-1.7-.7s-.8.1-1.2.3c-.4.2-.7.6-1,1.1-.2.5-.4,1.1-.4,1.7v5.1h-1.7,0Z"/>
    <path d="M983.1,38.4c-.2.1-.5.2-.9.3-.4,0-.7.1-1,.1-.9,0-1.6-.2-2-.7s-.6-1.2-.6-2.2v-5.4h-1.5v-1.3h1.5v-2.4h1.7v2.4h2.7v1.3h-2.7v5.4c0,.6,0,1,.3,1.2.2.2.5.3.9.3s.9,0,1.4-.3l.4,1.3h-.2Z"/>
    <path d="M1002.5,38.7h-1.8l-1.1-3h-5.8l-1.1,3h-1.8l5-12.7h1.7l5,12.7h-.1ZM996.7,28l-2.3,6.2h4.7l-2.3-6.2h-.1Z"/>
    <path d="M1006.6,38.7h-1.7v-13.5h1.7v13.5Z"/>
    <path d="M1010.1,26.9c-.2-.2-.3-.5-.3-.9s0-.7.3-.9.5-.3.9-.3.7.1.9.3.3.5.3.9,0,.7-.3.9-.5.3-.9.3-.7-.1-.9-.3ZM1011.9,38.7h-1.7v-9.5h1.7v9.5Z"/>
    <path d="M1017,42.2c-.7-.3-1.3-.7-1.8-1.2l1-1.2c.5.5.9.8,1.4,1s1,.3,1.5.3c1,0,1.7-.3,2.2-.8s.8-1.3.8-2.2v-1.2h0c-.3.5-.7.9-1.3,1.2-.6.3-1.2.5-1.9.5s-1.6-.2-2.3-.6-1.2-.9-1.6-1.6-.6-1.5-.6-2.5.2-1.8.6-2.5c.4-.7.9-1.3,1.6-1.7.7-.4,1.4-.6,2.2-.6s1.4.2,2,.5,1.1.8,1.4,1.3h0v-1.6h1.5v8.6c0,1-.2,1.8-.5,2.6s-.9,1.3-1.6,1.7c-.7.4-1.5.6-2.5.6s-1.5-.1-2.2-.4v-.2ZM1020.6,36.7c.4-.2.8-.6,1.1-1.1s.4-1.1.4-1.8,0-1.3-.4-1.8c-.3-.5-.6-.9-1.1-1.1-.5-.3-1-.4-1.5-.4s-1.1.1-1.5.4-.7.7-1,1.2c-.2.5-.3,1.1-.3,1.8,0,1,.3,1.8.8,2.4s1.2.8,2.1.8,1.1-.1,1.5-.4h0Z"/>
    <path d="M1026.5,38.7v-9.5h1.5v1.6h0c.3-.6.8-1,1.3-1.3s1.1-.5,1.8-.5,1.3.1,1.9.4c.5.3,1,.7,1.3,1.3s.5,1.2.5,2v6h-1.7v-5.6c0-.9-.2-1.5-.6-2-.4-.4-1-.7-1.7-.7s-.8.1-1.2.3c-.4.2-.7.6-1,1.1-.2.5-.4,1.1-.4,1.7v5.1h-1.7Z"/>
    <path d="M1037.5,38.7v-9.5h1.5v1.6h0c.3-.6.8-1,1.3-1.3s1.1-.5,1.8-.5,1.4.2,1.9.5,1,.8,1.3,1.4h0c.3-.6.8-1,1.3-1.3.6-.3,1.2-.5,1.8-.5s1.3.1,1.9.4c.5.3,1,.7,1.3,1.3s.5,1.2.5,2v6h-1.7v-5.8c0-.8-.2-1.4-.6-1.8s-.9-.6-1.6-.6-.9.1-1.3.3c-.4.2-.7.6-.9,1-.2.4-.3,1-.3,1.6v5.3h-1.7v-5.8c0-.8-.2-1.4-.6-1.8s-.9-.6-1.6-.6-.9.1-1.3.3-.7.6-1,1c-.3.5-.4,1-.4,1.7v5.1h-1.7,0Z"/>
    <path d="M1063.3,34.4h-7.2c0,1,.4,1.7,1,2.2s1.3.8,2.2.8,1,0,1.5-.3.9-.4,1.2-.7l1,1.1c-.5.4-1,.8-1.6,1s-1.3.4-2.1.4-1.7-.2-2.5-.6c-.7-.4-1.3-1-1.7-1.7-.4-.7-.6-1.6-.6-2.6s.2-1.8.6-2.6c.4-.7,1-1.3,1.7-1.7s1.5-.6,2.4-.6,1.6.2,2.3.6c.7.4,1.2.9,1.5,1.6s.5,1.5.5,2.4,0,.5,0,.8h-.2ZM1057.1,31.1c-.5.5-.8,1.1-1,1.9h5.6c0-.8-.3-1.4-.8-1.9s-1.1-.7-1.9-.7-1.3.2-1.9.7h0Z"/>
    <path d="M1065.6,38.7v-9.5h1.5v1.6h0c.3-.6.8-1,1.3-1.3s1.1-.5,1.8-.5,1.3.1,1.9.4c.5.3,1,.7,1.3,1.3s.5,1.2.5,2v6h-1.7v-5.6c0-.9-.2-1.5-.6-2-.4-.4-1-.7-1.7-.7s-.8.1-1.2.3c-.4.2-.7.6-1,1.1-.2.5-.4,1.1-.4,1.7v5.1h-1.7Z"/>
    <path d="M1081.7,38.4c-.2.1-.5.2-.9.3-.4,0-.7.1-1,.1-.9,0-1.6-.2-2-.7s-.6-1.2-.6-2.2v-5.4h-1.5v-1.3h1.5v-2.4h1.7v2.4h2.7v1.3h-2.7v5.4c0,.6,0,1,.3,1.2.2.2.5.3.9.3s.9,0,1.4-.3l.4,1.3h-.2Z"/>
  </g>
  <rect class="st4" x="956" y="88.7" width="122" height="20"/>
  <g class="st3">
    <path class="st1" d="M1008.7,102.3l.8-.8c.4.4.8.7,1.2.9.4.2.9.3,1.5.3s1-.1,1.3-.4c.3-.2.5-.6.5-1s0-.7-.4-1c-.3-.2-.7-.5-1.3-.6l-1-.3c-.8-.2-1.3-.5-1.7-.9s-.5-.9-.5-1.5,0-.8.4-1.2c.2-.4.6-.7,1-.9.4-.2,1-.3,1.6-.3s1.2.1,1.8.4c.5.2,1,.6,1.3,1l-.8.7c-.2-.3-.6-.5-1-.7s-.8-.3-1.2-.3-.7,0-1,.2c-.3.1-.5.3-.6.5s-.2.4-.2.7,0,.6.3.8.6.4,1,.5l.9.2c.9.3,1.6.6,2,1s.6,1,.6,1.7,0,.9-.4,1.3-.6.7-1,.9c-.4.2-1,.3-1.6.3-1.5,0-2.7-.5-3.5-1.5h0Z"/>
    <path class="st1" d="M1020.9,103.9h-1.3l-3.7-9.2h1.4l2.9,7.8h0l2.9-7.8h1.4l-3.7,9.2h0Z"/>
  </g>
  <rect class="st0" x="877" y="129.7" width="201" height="16"/>
  <g class="st3">
    <path class="st1" d="M974.7,145.7v-1.2c0,0,.4.1.6.1s.5,0,.7-.1.3-.2.4-.4c0-.1.2-.5.4-1,0,0,0-.2,0-.3l-3-7.8h1.4l1.6,4.5c.2.6.4,1.2.6,1.8.2-.6.3-1.2.5-1.8l1.7-4.5h1.3l-3,7.9c-.3.9-.6,1.4-.7,1.8-.2.4-.5.8-.8,1s-.7.3-1.1.3-.5,0-.8-.2h0Z"/>
  </g>
  <rect class="st2" x="956" y="111.7" width="194" height="16"/>
  <g class="st3">
    <path class="st1" d="M1049.8,124.7l2.8-4-2.6-3.7h1.6l1.2,1.8c.2.3.4.6.5.9.2-.3.4-.6.6-.9l1.3-1.8h1.6l-2.7,3.7,2.9,4.1h-1.6l-1.6-2.4-.4-.7-2,3.1h-1.6Z"/>
  </g>
  <g class="st3">
    <path class="st2" d="M943.6,123.7h-5.7v-9h1.3v7.8h4.5v1.1h0Z"/>
    <path class="st2" d="M944.8,122.3l.8-.8c.4.4.8.7,1.2.9.4.2.9.3,1.5.3s1-.1,1.3-.4c.3-.2.5-.6.5-1s0-.7-.4-1c-.3-.2-.7-.5-1.3-.6l-1-.3c-.8-.2-1.3-.5-1.7-.9s-.5-.9-.5-1.5,0-.8.4-1.2c.2-.4.6-.7,1-.9.4-.2,1-.3,1.6-.3s1.2.1,1.8.4c.5.2,1,.6,1.3,1l-.8.7c-.2-.3-.6-.5-1-.7s-.8-.3-1.2-.3-.7,0-1,.2c-.3.1-.5.3-.6.5s-.2.4-.2.7,0,.6.3.8.6.4,1,.5l.9.2c.9.3,1.6.6,2,1s.6,1,.6,1.7,0,.9-.4,1.3c-.2.4-.6.7-1,.9-.4.2-1,.3-1.6.3-1.5,0-2.7-.5-3.5-1.5h0Z"/>
  </g>
  <g class="st3">
    <path class="st0" d="M1093.8,141.7h-1.5l-2.7-3.6h-1.7v3.6h-1.2v-9h3.2c.6,0,1.2.1,1.7.3.5.2.9.5,1.1.9.3.4.4.9.4,1.5s-.2,1.2-.6,1.7-1,.8-1.7.9l3,3.7h0ZM1087.9,133.8v3.3h1.9c.6,0,1.1-.1,1.5-.4s.6-.7.6-1.2-.2-1-.5-1.2c-.3-.3-.8-.4-1.4-.4h-2.1Z"/>
    <path class="st0" d="M1101.2,141.7h-5.6v-9h5.6v1.1h-4.3v2.7h3.4v1.1h-3.4v3h4.4v1.1h0Z"/>
  </g>
  <g class="st3">
    <path d="M1008.2,67.7v1.3h-2.9v14.1h2.9v1.3h-4.4v-16.6h4.4Z"/>
  </g>
  <g class="st3">
    <path d="M1014.2,76.9l3.7,4.8h-1.9l-2.7-3.7-2.8,3.7h-2l3.8-4.8-3.6-4.7h2l2.7,3.7,2.6-3.7h1.9l-3.5,4.7h-.2Z"/>
    <path d="M1022.2,80.7c0,.6-.2,1.2-.5,2-.3.7-.7,1.3-1.2,1.8l-1.2-.2c.7-.8,1.1-1.6,1.3-2.5-.3,0-.5-.2-.6-.4s-.2-.4-.2-.7,0-.7.3-.9c.2-.2.5-.3.9-.3s.7.1.9.3c.2.2.3.5.3.9h0Z"/>
    <path d="M1024.1,85.3c-.2,0-.5,0-.7-.2l.4-1.4c.2,0,.3,0,.5.1h.4c.5,0,.9-.1,1.2-.4.3-.2.6-.6.8-1.2l.2-.6-3.8-9.6h1.8l2.8,7.7h0l2.7-7.7h1.8l-4.1,10.5c-.4,1-.9,1.7-1.4,2.1-.6.4-1.2.6-2,.6s-.4,0-.7,0h0Z"/>
  </g>
  <g class="st3">
    <path d="M1032.6,84.3v-1.3h2.9v-14.1h-2.9v-1.3h4.4v16.6h-4.4Z"/>
  </g>
  <g class="st3">
    <path d="M841.5,179.6h4.8v1.2h-4.8v-1.2Z"/>
  </g>
  <g class="st3">
    <path d="M873,184.7h-1.2v-9.6h1.6l3.8,6.2,1,1.8h0v-7.9h1.2v9.6h-1.6l-3.8-6.2-1-1.7h0v7.9h0Z"/>
    <path d="M888.3,181.4h-5.5c0,.7.3,1.3.8,1.7s1,.6,1.7.6.8,0,1.1-.2.7-.3.9-.6l.7.8c-.3.3-.8.6-1.2.8s-1,.3-1.6.3-1.3-.2-1.9-.5-1-.7-1.3-1.3-.5-1.2-.5-2,.2-1.4.5-2,.7-1,1.3-1.3,1.1-.5,1.8-.5,1.2.1,1.7.4.9.7,1.2,1.2.4,1.1.4,1.8,0,.4,0,.6v.2ZM883.5,178.9c-.4.3-.6.8-.8,1.4h4.3c0-.6-.3-1.1-.6-1.4s-.9-.5-1.5-.5-1,.2-1.4.5Z"/>
    <path d="M893.2,181l2.8,3.7h-1.5l-2.1-2.8-2.1,2.8h-1.5l2.9-3.6-2.8-3.6h1.5l2,2.8,2-2.8h1.4l-2.7,3.6h0Z"/>
    <path d="M901.6,184.5c-.2,0-.4.2-.7.2h-.7c-.7,0-1.2-.2-1.5-.6s-.5-.9-.5-1.7v-4.1h-1.2v-1h1.2v-1.8h1.3v1.8h2.1v1h-2.1v4.1c0,.4,0,.7.2.9s.4.2.7.2.7,0,1-.2l.3,1v.2Z"/>
    <path d="M909.7,184.7h-1.3v-10.3h1.3v10.3Z"/>
    <path d="M913.5,184.3c-.6-.3-1-.8-1.3-1.3s-.5-1.2-.5-2,.2-1.4.5-2,.8-1,1.3-1.3,1.2-.5,1.9-.5,1.3.2,1.8.5,1,.8,1.3,1.3.5,1.2.5,2-.2,1.4-.5,2-.8,1-1.3,1.3-1.2.5-1.9.5-1.3-.2-1.9-.5h.1ZM916.5,183.4c.4-.2.6-.5.8-.9s.3-.9.3-1.4,0-1-.3-1.4-.5-.7-.8-.9-.8-.3-1.2-.3-.8.1-1.2.3-.6.5-.9.9-.3.9-.3,1.4,0,1,.3,1.4.5.7.9.9.8.3,1.2.3.8-.1,1.2-.3Z"/>
    <path d="M923.6,184.7h-1.3l-2.5-7.3h1.3l1.8,5.8h0l1.9-5.8h1.1l2,5.8h0l1.8-5.8h1.3l-2.4,7.3h-1.2l-1.9-5.6h0l-1.9,5.6h0Z"/>
    <path d="M938.7,181.4h-5.5c0,.7.3,1.3.8,1.7s1,.6,1.7.6.8,0,1.1-.2.7-.3.9-.6l.7.8c-.3.3-.8.6-1.2.8s-1,.3-1.6.3-1.3-.2-1.9-.5-1-.7-1.3-1.3-.5-1.2-.5-2,.2-1.4.5-2,.7-1,1.3-1.3,1.1-.5,1.8-.5,1.2.1,1.7.4.9.7,1.2,1.2.4,1.1.4,1.8,0,.4,0,.6v.2ZM934,178.9c-.4.3-.6.8-.8,1.4h4.3c0-.6-.3-1.1-.6-1.4s-.9-.5-1.5-.5-1,.2-1.4.5Z"/>
    <path d="M941.4,184.6c-.5-.2-.9-.4-1.3-.8l.7-.9c.3.3.7.5,1.1.7s.8.2,1.2.2c.9,0,1.4-.3,1.4-1s0-.5-.2-.6-.4-.3-.8-.4l-1.3-.4c-.6-.2-1.1-.4-1.4-.8s-.5-.8-.5-1.3,0-.7.3-1,.5-.6.9-.7.8-.3,1.4-.3,1,0,1.5.3.8.5,1.2.8l-.7.8c-.6-.5-1.2-.8-1.9-.8s-.8,0-1,.3-.3.4-.3.7,0,.4.2.6.4.3.7.3l1.3.4c.7.2,1.2.5,1.5.8s.5.8.5,1.3-.2,1.1-.7,1.5-1.1.6-2,.6-1.1,0-1.6-.3h-.2Z"/>
    <path d="M951.5,184.5c-.2,0-.4.2-.7.2h-.7c-.7,0-1.2-.2-1.5-.6s-.5-.9-.5-1.7v-4.1h-1.2v-1h1.2v-1.8h1.3v1.8h2.1v1h-2.1v4.1c0,.4,0,.7.2.9s.4.2.7.2.7,0,1-.2l.3,1v.2Z"/>
    <path d="M958.1,184.7v-7.2h1.1v1.3h0c.2-.5.5-.8.9-1.1s.9-.4,1.4-.4h.6l-.2,1.2h-.7c-.3,0-.6,0-.9.3s-.5.4-.7.8-.3.8-.3,1.3v3.9h-1.3,0Z"/>
    <path d="M969.6,181.4h-5.5c0,.7.3,1.3.8,1.7s1,.6,1.7.6.8,0,1.1-.2.7-.3.9-.6l.7.8c-.3.3-.8.6-1.2.8s-1,.3-1.6.3-1.3-.2-1.9-.5-1-.7-1.3-1.3-.5-1.2-.5-2,.2-1.4.5-2,.7-1,1.3-1.3,1.1-.5,1.8-.5,1.2.1,1.7.4.9.7,1.2,1.2.4,1.1.4,1.8,0,.4,0,.6v.2ZM964.9,178.9c-.4.3-.6.8-.8,1.4h4.3c0-.6-.3-1.1-.6-1.4s-.9-.5-1.5-.5-1,.2-1.4.5Z"/>
    <path d="M972.5,184.4c-.5-.3-.9-.7-1.2-1.3s-.4-1.2-.4-2,0-1.4.4-2,.7-1,1.2-1.3,1.1-.5,1.7-.5,1.1.1,1.5.4.8.6,1.1.9h0v-1.1h1.3v7.2h-1.1v-1.3h0c-.3.4-.6.8-1,1s-1,.4-1.5.4-1.2-.2-1.8-.5h-.2ZM975.6,183.4c.4-.2.7-.5.9-.9s.3-.9.3-1.4,0-1-.3-1.4-.5-.7-.9-.9-.8-.3-1.2-.3-.8.1-1.2.3-.6.5-.8.9-.3.9-.3,1.4,0,1,.3,1.4.4.7.8.9.7.3,1.1.3.9-.1,1.3-.3h0Z"/>
    <path d="M981.4,184.4c-.5-.3-.9-.7-1.2-1.3s-.5-1.2-.5-2,.2-1.5.5-2,.7-1,1.2-1.3,1.1-.5,1.7-.5,1,.1,1.5.4.8.6,1.1.9h0v-4.2h1.3v10.3h-1.1v-1.5h0c0,.3-.3.6-.6.8s-.6.4-.9.6-.7.2-1.1.2c-.6,0-1.2-.1-1.7-.4h-.1ZM984.5,183.4c.4-.2.7-.5.9-.9s.3-.9.3-1.5,0-1-.3-1.3-.5-.7-.9-.9-.8-.3-1.2-.3-.8.1-1.2.3-.6.5-.8.9-.3.9-.3,1.5,0,1,.3,1.4.5.7.8.9.7.3,1.2.3.8-.1,1.2-.3h0Z"/>
    <path d="M995.6,184.3c-.6-.3-1-.8-1.3-1.3s-.5-1.2-.5-2,.2-1.4.5-2,.8-1,1.3-1.3,1.2-.5,1.9-.5,1.3.2,1.8.5,1,.8,1.3,1.3.5,1.2.5,2-.2,1.4-.5,2-.8,1-1.3,1.3-1.2.5-1.9.5-1.3-.2-1.9-.5h.1ZM998.6,183.4c.4-.2.6-.5.8-.9s.3-.9.3-1.4,0-1-.3-1.4-.5-.7-.8-.9-.8-.3-1.2-.3-.8.1-1.2.3-.6.5-.9.9-.3.9-.3,1.4,0,1,.3,1.4.5.7.9.9.8.3,1.2.3.8-.1,1.2-.3Z"/>
    <path d="M1002.8,184.7v-7.2h1.1v1.3h0c.2-.5.5-.8.9-1.1s.9-.4,1.4-.4h.6l-.2,1.2h-.7c-.3,0-.6,0-.9.3s-.5.4-.7.8-.3.8-.3,1.3v3.9h-1.3,0Z"/>
    <path d="M1009.2,184.4c-.5-.3-.9-.7-1.2-1.3s-.5-1.2-.5-2,.2-1.5.5-2,.7-1,1.2-1.3,1.1-.5,1.7-.5,1,.1,1.5.4.8.6,1.1.9h0v-4.2h1.3v10.3h-1.1v-1.5h0c0,.3-.3.6-.6.8s-.6.4-.9.6-.7.2-1.1.2c-.6,0-1.2-.1-1.7-.4h-.1ZM1012.3,183.4c.4-.2.7-.5.9-.9s.3-.9.3-1.5,0-1-.3-1.3-.5-.7-.9-.9-.8-.3-1.2-.3-.8.1-1.2.3-.6.5-.8.9-.3.9-.3,1.5,0,1,.3,1.4.5.7.8.9.7.3,1.2.3.8-.1,1.2-.3h0Z"/>
    <path d="M1023.3,181.4h-5.5c0,.7.3,1.3.8,1.7s1,.6,1.7.6.8,0,1.1-.2.7-.3.9-.6l.7.8c-.3.3-.8.6-1.2.8s-1,.3-1.6.3-1.3-.2-1.9-.5-1-.7-1.3-1.3-.5-1.2-.5-2,.2-1.4.5-2,.7-1,1.3-1.3,1.1-.5,1.8-.5,1.2.1,1.7.4.9.7,1.2,1.2.4,1.1.4,1.8,0,.4,0,.6v.2ZM1018.6,178.9c-.4.3-.6.8-.8,1.4h4.3c0-.6-.3-1.1-.6-1.4s-.9-.5-1.5-.5-1,.2-1.4.5Z"/>
    <path d="M1025.1,184.7v-7.2h1.1v1.3h0c.2-.5.5-.8.9-1.1s.9-.4,1.4-.4h.6l-.2,1.2h-.7c-.3,0-.6,0-.9.3s-.5.4-.7.8-.3.8-.3,1.3v3.9h-1.3,0Z"/>
    <path d="M1036.8,184.3c-.6-.3-1-.8-1.3-1.3s-.5-1.2-.5-2,.2-1.4.5-2,.8-1,1.3-1.3,1.2-.5,1.9-.5,1.3.2,1.8.5,1,.8,1.3,1.3.5,1.2.5,2-.2,1.4-.5,2-.8,1-1.3,1.3-1.2.5-1.9.5-1.3-.2-1.9-.5h0ZM1039.9,183.4c.4-.2.6-.5.8-.9s.3-.9.3-1.4,0-1-.3-1.4-.5-.7-.8-.9-.8-.3-1.2-.3-.8.1-1.2.3-.6.5-.9.9-.3.9-.3,1.4,0,1,.3,1.4.5.7.9.9.8.3,1.2.3.8-.1,1.2-.3Z"/>
    <path d="M1044,184.7v-7.2h1.1v1.2h0c.2-.4.6-.8,1-1s.8-.4,1.4-.4,1,.1,1.4.3.7.5,1,1,.4.9.4,1.5v4.5h-1.3v-4.2c0-.7-.2-1.2-.5-1.5s-.7-.5-1.3-.5-.6,0-.9.3-.5.4-.7.8-.3.8-.3,1.3v3.9h-1.3,0Z"/>
    <path d="M1058.7,184.3c-.6-.3-1-.8-1.3-1.3s-.5-1.2-.5-2,.2-1.4.5-2,.8-1,1.3-1.3,1.2-.5,1.9-.5,1.3.2,1.8.5,1,.8,1.3,1.3.5,1.2.5,2-.2,1.4-.5,2-.8,1-1.3,1.3-1.2.5-1.9.5-1.3-.2-1.9-.5h0ZM1061.8,183.4c.4-.2.6-.5.8-.9s.3-.9.3-1.4,0-1-.3-1.4-.5-.7-.8-.9-.8-.3-1.2-.3-.8.1-1.2.3-.6.5-.9.9-.3.9-.3,1.4,0,1,.3,1.4.5.7.9.9.8.3,1.2.3.8-.1,1.2-.3Z"/>
    <path d="M1065.9,187.7v-10.3h1.1v1.3h0c.2-.3.4-.5.6-.8s.6-.4.9-.5.7-.2,1.1-.2c.6,0,1.2.2,1.7.5s.9.8,1.2,1.3.5,1.2.5,2-.2,1.4-.5,2-.7,1-1.2,1.3-1.1.5-1.7.5-1-.1-1.5-.3-.8-.5-1.1-.9h0v4.2h-1.3.2ZM1070.8,183.4c.3-.2.6-.5.8-.9s.3-.9.3-1.4,0-1-.3-1.4-.4-.7-.8-.9-.7-.3-1.2-.3-.8.1-1.2.3-.7.5-.9.9-.3.9-.3,1.4,0,1.1.3,1.5.5.7.9.9.8.3,1.2.3.8-.1,1.1-.3h0Z"/>
    <path d="M1075,187.7v-10.3h1.1v1.3h0c.2-.3.4-.5.6-.8s.6-.4.9-.5.7-.2,1.1-.2c.6,0,1.2.2,1.7.5s.9.8,1.2,1.3.5,1.2.5,2-.2,1.4-.5,2-.7,1-1.2,1.3-1.1.5-1.7.5-1-.1-1.5-.3-.8-.5-1.1-.9h0v4.2h-1.3.2ZM1079.8,183.4c.3-.2.6-.5.8-.9s.3-.9.3-1.4,0-1-.3-1.4-.4-.7-.8-.9-.7-.3-1.2-.3-.8.1-1.2.3-.7.5-.9.9-.3.9-.3,1.4,0,1.1.3,1.5.5.7.9.9.8.3,1.2.3.8-.1,1.1-.3h0Z"/>
    <path d="M1085.4,184.3c-.6-.3-1-.8-1.3-1.3s-.5-1.2-.5-2,.2-1.4.5-2,.8-1,1.3-1.3,1.2-.5,1.9-.5,1.3.2,1.8.5,1,.8,1.3,1.3.5,1.2.5,2-.2,1.4-.5,2-.8,1-1.3,1.3-1.2.5-1.9.5-1.3-.2-1.9-.5h0ZM1088.4,183.4c.4-.2.6-.5.8-.9s.3-.9.3-1.4,0-1-.3-1.4-.5-.7-.8-.9-.8-.3-1.2-.3-.8.1-1.2.3-.6.5-.9.9-.3.9-.3,1.4,0,1,.3,1.4.5.7.9.9.8.3,1.2.3.8-.1,1.2-.3Z"/>
    <path d="M1093.4,184.6c-.5-.2-.9-.4-1.3-.8l.7-.9c.3.3.7.5,1.1.7s.8.2,1.2.2c.9,0,1.4-.3,1.4-1s0-.5-.2-.6-.4-.3-.8-.4l-1.3-.4c-.6-.2-1.1-.4-1.4-.8s-.5-.8-.5-1.3,0-.7.3-1,.5-.6.9-.7.8-.3,1.4-.3,1,0,1.5.3.8.5,1.2.8l-.7.8c-.6-.5-1.2-.8-1.9-.8s-.8,0-1,.3-.3.4-.3.7,0,.4.2.6.4.3.7.3l1.3.4c.7.2,1.2.5,1.5.8s.5.8.5,1.3-.2,1.1-.7,1.5-1.1.6-2,.6-1.1,0-1.6-.3h-.2Z"/>
    <path d="M1099.7,175.7c-.2-.2-.2-.4-.2-.7s0-.5.2-.7.4-.2.7-.2.5,0,.7.2.2.4.2.7,0,.5-.2.7-.4.2-.7.2-.5,0-.7-.2ZM1101,184.7h-1.3v-7.2h1.3v7.2Z"/>
    <path d="M1107.5,184.5c-.2,0-.4.2-.7.2h-.7c-.7,0-1.2-.2-1.5-.6s-.5-.9-.5-1.7v-4.1h-1.2v-1h1.2v-1.8h1.3v1.8h2.1v1h-2.1v4.1c0,.4,0,.7.2.9s.4.2.7.2.7,0,1-.2l.3,1v.2Z"/>
    <path d="M1115.2,181.4h-5.5c0,.7.3,1.3.8,1.7s1,.6,1.7.6.8,0,1.1-.2.7-.3.9-.6l.7.8c-.3.3-.8.6-1.2.8s-1,.3-1.6.3-1.3-.2-1.9-.5-1-.7-1.3-1.3-.5-1.2-.5-2,.2-1.4.5-2,.7-1,1.3-1.3,1.1-.5,1.8-.5,1.2.1,1.7.4.9.7,1.2,1.2.4,1.1.4,1.8,0,.4,0,.6v.2ZM1110.5,178.9c-.4.3-.6.8-.8,1.4h4.3c0-.6-.3-1.1-.6-1.4s-.9-.5-1.5-.5-1,.2-1.4.5Z"/>
    <path d="M1122.2,175.7c-.2-.2-.2-.4-.2-.7s0-.5.2-.7.4-.2.7-.2.5,0,.7.2.2.4.2.7,0,.5-.2.7-.4.2-.7.2-.5,0-.7-.2ZM1123.5,184.7h-1.3v-7.2h1.3v7.2Z"/>
    <path d="M1125.9,184.7v-7.2h1.1v1.2h0c.2-.4.6-.8,1-1s.8-.4,1.4-.4,1,.1,1.4.3.7.5,1,1,.4.9.4,1.5v4.5h-1.3v-4.2c0-.7-.2-1.2-.5-1.5s-.7-.5-1.3-.5-.6,0-.9.3-.5.4-.7.8-.3.8-.3,1.3v3.9h-1.3,0Z"/>
    <path d="M1138.2,184.5c-.2,0-.4.2-.7.2h-.7c-.7,0-1.2-.2-1.5-.6s-.5-.9-.5-1.7v-4.1h-1.2v-1h1.2v-1.8h1.3v1.8h2.1v1h-2.1v4.1c0,.4,0,.7.2.9s.4.2.7.2.7,0,1-.2l.3,1v.2Z"/>
    <path d="M1146,181.4h-5.5c0,.7.3,1.3.8,1.7s1,.6,1.7.6.8,0,1.1-.2.7-.3.9-.6l.7.8c-.3.3-.8.6-1.2.8s-1,.3-1.6.3-1.3-.2-1.9-.5-1-.7-1.3-1.3-.5-1.2-.5-2,.2-1.4.5-2,.7-1,1.3-1.3,1.1-.5,1.8-.5,1.2.1,1.7.4.9.7,1.2,1.2.4,1.1.4,1.8,0,.4,0,.6v.2ZM1141.3,178.9c-.4.3-.6.8-.8,1.4h4.3c0-.6-.3-1.1-.6-1.4s-.9-.5-1.5-.5-1,.2-1.4.5Z"/>
    <path d="M1147.7,184.7v-7.2h1.1v1.3h0c.2-.5.5-.8.9-1.1s.9-.4,1.4-.4h.6l-.2,1.2h-.7c-.3,0-.6,0-.9.3s-.5.4-.7.8-.3.8-.3,1.3v3.9h-1.3,0Z"/>
    <path d="M1153.8,184.6c-.5-.2-.9-.4-1.3-.8l.7-.9c.3.3.7.5,1.1.7s.8.2,1.2.2c.9,0,1.4-.3,1.4-1s0-.5-.2-.6-.4-.3-.8-.4l-1.3-.4c-.6-.2-1.1-.4-1.4-.8s-.5-.8-.5-1.3,0-.7.3-1,.5-.6.9-.7.8-.3,1.4-.3,1,0,1.5.3.8.5,1.2.8l-.7.8c-.6-.5-1.2-.8-1.9-.8s-.8,0-1,.3-.3.4-.3.7,0,.4.2.6.4.3.7.3l1.3.4c.7.2,1.2.5,1.5.8s.5.8.5,1.3-.2,1.1-.7,1.5-1.1.6-2,.6-1.1,0-1.6-.3h-.2Z"/>
    <path d="M1166.2,181.4h-5.5c0,.7.3,1.3.8,1.7s1,.6,1.7.6.8,0,1.1-.2.7-.3.9-.6l.7.8c-.3.3-.8.6-1.2.8s-1,.3-1.6.3-1.3-.2-1.9-.5-1-.7-1.3-1.3-.5-1.2-.5-2,.2-1.4.5-2,.7-1,1.3-1.3,1.1-.5,1.8-.5,1.2.1,1.7.4.9.7,1.2,1.2.4,1.1.4,1.8,0,.4,0,.6v.2ZM1161.5,178.9c-.4.3-.6.8-.8,1.4h4.3c0-.6-.3-1.1-.6-1.4s-.9-.5-1.5-.5-1,.2-1.4.5Z"/>
    <path d="M1169.1,184.4c-.5-.3-1-.7-1.3-1.3s-.5-1.2-.5-2,.2-1.4.5-2,.8-1,1.3-1.3,1.1-.5,1.8-.5,1.2.1,1.7.3.9.6,1.3,1.1l-.9.8c-.3-.4-.6-.7-.9-.8s-.7-.2-1.1-.2-.8.1-1.1.3-.6.5-.8.9-.3.9-.3,1.4,0,1,.3,1.4.5.7.8.9.7.3,1.2.3.8,0,1.2-.3.6-.4.9-.8l.9.7c-.4.5-.8.8-1.3,1.1s-1,.4-1.7.4-1.3-.2-1.9-.5h0Z"/>
    <path d="M1179.3,184.5c-.2,0-.4.2-.7.2h-.7c-.7,0-1.2-.2-1.5-.6s-.5-.9-.5-1.7v-4.1h-1.2v-1h1.2v-1.8h1.3v1.8h2.1v1h-2.1v4.1c0,.4,0,.7.2.9s.4.2.7.2.7,0,1-.2l.3,1v.2Z"/>
  </g>
  <g class="st3">
    <path d="M841.5,198.6h4.8v1.2h-4.8v-1.2Z"/>
  </g>
  <g class="st3">
    <path d="M873,203.7h-1.2v-9.6h1.6l3.8,6.2,1,1.8h0v-7.9h1.2v9.6h-1.6l-3.8-6.2-1-1.7h0v7.9h0Z"/>
    <path d="M883.9,203.2c-.7-.4-1.3-1-1.7-1.7s-.6-1.6-.6-2.6.2-1.9.6-2.6,1-1.3,1.7-1.7,1.5-.6,2.4-.6,1.6.2,2.4.6,1.3,1,1.7,1.7.6,1.6.6,2.6-.2,1.8-.6,2.6-1,1.3-1.7,1.7-1.5.6-2.4.6-1.7-.2-2.4-.6ZM888,202.2c.5-.3.9-.7,1.1-1.3s.4-1.2.4-2,0-1.5-.4-2-.7-1-1.2-1.3-1.1-.4-1.7-.4-1.2.1-1.7.4-.9.7-1.2,1.3-.4,1.2-.4,2,0,1.5.4,2,.7,1,1.2,1.3,1.1.4,1.7.4,1.2-.1,1.7-.4h.1Z"/>
    <path d="M896.2,203.7h-1.3v-8.4h-3.1v-1.2h7.5v1.2h-3.1v8.4h0Z"/>
    <path d="M910.1,193v1h-2.2v10.7h2.2v1h-3.4v-12.7h3.4Z"/>
  </g>
  <g class="st3">
    <path d="M915.1,200l2.8,3.7h-1.5l-2.1-2.8-2.1,2.8h-1.5l2.9-3.6-2.8-3.6h1.5l2,2.8,2-2.8h1.4l-2.7,3.6h0Z"/>
    <path d="M921.3,202.9c0,.4,0,.9-.4,1.5s-.6,1-.9,1.4l-.9-.2c.5-.6.8-1.2,1-1.9-.2,0-.4-.1-.5-.3s-.2-.3-.2-.5,0-.5.3-.7.4-.3.7-.3.5,0,.7.3.3.4.3.7h0Z"/>
    <path d="M927.4,200l2.8,3.7h-1.5l-2.1-2.8-2.1,2.8h-1.5l2.9-3.6-2.8-3.6h1.5l2,2.8,2-2.8h1.4l-2.7,3.6h0Z"/>
  </g>
  <g class="st3">
    <path d="M931.1,205.7v-1h2.2v-10.7h-2.2v-1h3.4v12.7h-3.4Z"/>
  </g>
  <g class="st3">
    <path d="M618.7,177v1h-2.2v10.7h2.2v1h-3.4v-12.7h3.4Z"/>
    <path d="M622.5,180.4c0,.1.2.3.2.5s0,.5-.3.7c-.2.2-.4.3-.7.3s-.5,0-.7-.3c-.2-.2-.3-.4-.3-.7h0c0-.5,0-.9.4-1.5.3-.6.6-1,.9-1.4l.9.2c-.5.6-.8,1.2-1,1.9.2,0,.4.1.5.3h0Z"/>
  </g>
  <g class="st3">
    <path d="M624.3,182.6h4.8v1.2h-4.8v-1.2Z"/>
  </g>
  <g class="st3">
    <path d="M632.8,179c0,.4,0,.9-.4,1.5-.3.6-.6,1-.9,1.4l-.9-.2c.5-.6.8-1.2,1-1.9-.2,0-.4-.1-.5-.3,0-.1-.2-.3-.2-.5s0-.5.3-.7c.2-.2.4-.3.7-.3s.5,0,.7.3c.2.2.3.4.3.7h0Z"/>
    <path d="M635.1,186.9c0,.4,0,.9-.4,1.5-.3.6-.6,1-.9,1.4l-.9-.2c.5-.6.8-1.2,1-1.9-.2,0-.4-.1-.5-.3,0-.1-.2-.3-.2-.5s0-.5.3-.7c.2-.2.4-.3.7-.3s.5,0,.7.3c.2.2.3.4.3.7h0Z"/>
    <path d="M644.4,180.4c0,.1.2.3.2.5s0,.5-.3.7c-.2.2-.4.3-.7.3s-.5,0-.7-.3c-.2-.2-.3-.4-.3-.7h0c0-.5,0-.9.4-1.5.3-.6.6-1,.9-1.4l.9.2c-.5.6-.8,1.2-1,1.9.2,0,.4.1.5.3h0Z"/>
  </g>
  <g class="st3">
    <path d="M646.2,182.6h4.8v1.2h-4.8v-1.2Z"/>
  </g>
  <g class="st3">
    <path d="M654.7,179c0,.4,0,.9-.4,1.5-.3.6-.6,1-.9,1.4l-.9-.2c.5-.6.8-1.2,1-1.9-.2,0-.4-.1-.5-.3,0-.1-.2-.3-.2-.5s0-.5.3-.7c.2-.2.4-.3.7-.3s.5,0,.7.3c.2.2.3.4.3.7h0Z"/>
    <path d="M656.8,189.7v-1h2.2v-10.7h-2.2v-1h3.4v12.7h-3.4Z"/>
    <path d="M664.8,186.9c0,.4,0,.9-.4,1.5-.3.6-.6,1-.9,1.4l-.9-.2c.5-.6.8-1.2,1-1.9-.2,0-.4-.1-.5-.3,0-.1-.2-.3-.2-.5s0-.5.3-.7c.2-.2.4-.3.7-.3s.5,0,.7.3c.2.2.3.4.3.7h0Z"/>
    <path d="M676.2,177v1h-2.2v10.7h2.2v1h-3.4v-12.7h3.4Z"/>
    <path d="M680,180.4c0,.1.2.3.2.5s0,.5-.3.7c-.2.2-.4.3-.7.3s-.5,0-.7-.3c-.2-.2-.3-.4-.3-.7h0c0-.5,0-.9.4-1.5.3-.6.6-1,.9-1.4l.9.2c-.5.6-.8,1.2-1,1.9.2,0,.4.1.5.3h0Z"/>
    <path d="M686.6,182.5h2.9v1.1h-2.9v3.1h-1.2v-3.1h-3v-1.1h3v-3h1.2v3Z"/>
    <path d="M693.6,179c0,.4,0,.9-.4,1.5-.3.6-.6,1-.9,1.4l-.9-.2c.5-.6.8-1.2,1-1.9-.2,0-.4-.1-.5-.3,0-.1-.2-.3-.2-.5s0-.5.3-.7c.2-.2.4-.3.7-.3s.5,0,.7.3c.2.2.3.4.3.7h0Z"/>
    <path d="M695.9,186.9c0,.4,0,.9-.4,1.5-.3.6-.6,1-.9,1.4l-.9-.2c.5-.6.8-1.2,1-1.9-.2,0-.4-.1-.5-.3,0-.1-.2-.3-.2-.5s0-.5.3-.7c.2-.2.4-.3.7-.3s.5,0,.7.3c.2.2.3.4.3.7h0Z"/>
    <path d="M705.2,180.4c0,.1.2.3.2.5s0,.5-.3.7c-.2.2-.4.3-.7.3s-.5,0-.7-.3c-.2-.2-.3-.4-.3-.7h0c0-.5,0-.9.4-1.5.3-.6.6-1,.9-1.4l.9.2c-.5.6-.8,1.2-1,1.9.2,0,.4.1.5.3h0Z"/>
    <path d="M711.7,182.5h2.9v1.1h-2.9v3.1h-1.2v-3.1h-3v-1.1h3v-3h1.2v3Z"/>
    <path d="M718.8,179c0,.4,0,.9-.4,1.5-.3.6-.6,1-.9,1.4l-.9-.2c.5-.6.8-1.2,1-1.9-.2,0-.4-.1-.5-.3,0-.1-.2-.3-.2-.5s0-.5.3-.7c.2-.2.4-.3.7-.3s.5,0,.7.3c.2.2.3.4.3.7h0Z"/>
    <path d="M720.9,189.7v-1h2.2v-10.7h-2.2v-1h3.4v12.7h-3.4Z"/>
  </g>
</svg>